<svg width="32" height="25" viewBox="0 0 32 25" fill="none" xmlns="http://www.w3.org/2000/svg">
<g clip-path="url(#clip0_2_1749)">
<path d="M5.81743 24.8757V23.221C5.81743 22.5867 5.43326 22.173 4.77469 22.173C4.4454 22.173 4.08867 22.2833 3.84171 22.6418C3.64962 22.3385 3.37522 22.173 2.96361 22.173C2.6892 22.173 2.4148 22.2557 2.19527 22.5591V22.2282H1.61902V24.8757H2.19527V23.414C2.19527 22.9452 2.44224 22.7246 2.8264 22.7246C3.21057 22.7246 3.40266 22.9728 3.40266 23.414V24.8757H3.97891V23.414C3.97891 22.9452 4.25332 22.7246 4.61004 22.7246C4.99421 22.7246 5.1863 22.9728 5.1863 23.414V24.8757H5.81743ZM14.3515 22.2282H13.4185V21.4284H12.8422V22.2282H12.3208V22.7521H12.8422V23.9656C12.8422 24.5723 13.0892 24.9308 13.7478 24.9308C13.9947 24.9308 14.2691 24.8481 14.4612 24.7378L14.2966 24.2414C14.1319 24.3517 13.9398 24.3793 13.8026 24.3793C13.5282 24.3793 13.4185 24.2138 13.4185 23.938V22.7521H14.3515V22.2282ZM19.2359 22.173C18.9066 22.173 18.6871 22.3385 18.5499 22.5591V22.2282H17.9736V24.8757H18.5499V23.3865C18.5499 22.9452 18.7419 22.697 19.0987 22.697C19.2084 22.697 19.3456 22.7246 19.4554 22.7521L19.62 22.2006C19.5103 22.173 19.3456 22.173 19.2359 22.173ZM11.8544 22.4488C11.58 22.2557 11.1958 22.173 10.7842 22.173C10.1256 22.173 9.68655 22.5039 9.68655 23.0279C9.68655 23.4692 10.0158 23.7174 10.5921 23.8001L10.8665 23.8277C11.1683 23.8829 11.333 23.9656 11.333 24.1035C11.333 24.2965 11.1135 24.4344 10.7293 24.4344C10.3451 24.4344 10.0433 24.2965 9.8512 24.1587L9.57679 24.5999C9.87864 24.8205 10.2902 24.9308 10.7019 24.9308C11.4702 24.9308 11.9092 24.5723 11.9092 24.0759C11.9092 23.6071 11.5525 23.3589 11.0037 23.2761L10.7293 23.2486C10.4823 23.221 10.2902 23.1658 10.2902 23.0004C10.2902 22.8073 10.4823 22.697 10.7842 22.697C11.1135 22.697 11.4427 22.8349 11.6074 22.9176L11.8544 22.4488ZM27.1662 22.173C26.8369 22.173 26.6174 22.3385 26.4802 22.5591V22.2282H25.9039V24.8757H26.4802V23.3865C26.4802 22.9452 26.6723 22.697 27.029 22.697C27.1388 22.697 27.276 22.7246 27.3857 22.7521L27.5504 22.2006C27.4406 22.173 27.276 22.173 27.1662 22.173ZM19.8121 23.5519C19.8121 24.3517 20.3609 24.9308 21.2116 24.9308C21.5958 24.9308 21.8702 24.8481 22.1446 24.6275L21.8702 24.1587C21.6507 24.3241 21.4311 24.4069 21.1842 24.4069C20.7177 24.4069 20.3884 24.0759 20.3884 23.5519C20.3884 23.0555 20.7177 22.7246 21.1842 22.697C21.4311 22.697 21.6507 22.7797 21.8702 22.9452L22.1446 22.4764C21.8702 22.2557 21.5958 22.173 21.2116 22.173C20.3609 22.173 19.8121 22.7521 19.8121 23.5519ZM25.1356 23.5519V22.2282H24.5594V22.5591C24.3673 22.3109 24.0929 22.173 23.7361 22.173C22.9952 22.173 22.419 22.7521 22.419 23.5519C22.419 24.3517 22.9952 24.9308 23.7361 24.9308C24.1203 24.9308 24.3947 24.793 24.5594 24.5447V24.8757H25.1356V23.5519ZM23.0227 23.5519C23.0227 23.0831 23.3245 22.697 23.8185 22.697C24.2849 22.697 24.6142 23.0555 24.6142 23.5519C24.6142 24.0208 24.2849 24.4069 23.8185 24.4069C23.3245 24.3793 23.0227 24.0208 23.0227 23.5519ZM16.1351 22.173C15.3668 22.173 14.8179 22.7246 14.8179 23.5519C14.8179 24.3793 15.3668 24.9308 16.1625 24.9308C16.5467 24.9308 16.9309 24.8205 17.2327 24.5723L16.9583 24.1587C16.7388 24.3241 16.4644 24.4344 16.19 24.4344C15.8332 24.4344 15.4765 24.269 15.3942 23.8001H17.3425V23.5795C17.3699 22.7246 16.876 22.173 16.1351 22.173ZM16.1351 22.6694C16.4918 22.6694 16.7388 22.89 16.7937 23.3037H15.4216C15.4765 22.9452 15.7235 22.6694 16.1351 22.6694ZM30.4316 23.5519V21.1802H29.8554V22.5591C29.6633 22.3109 29.3889 22.173 29.0322 22.173C28.2913 22.173 27.715 22.7521 27.715 23.5519C27.715 24.3517 28.2913 24.9308 29.0322 24.9308C29.4163 24.9308 29.6907 24.793 29.8554 24.5447V24.8757H30.4316V23.5519ZM28.3187 23.5519C28.3187 23.0831 28.6206 22.697 29.1145 22.697C29.581 22.697 29.9103 23.0555 29.9103 23.5519C29.9103 24.0208 29.581 24.4069 29.1145 24.4069C28.6206 24.3793 28.3187 24.0208 28.3187 23.5519ZM9.05542 23.5519V22.2282H8.47917V22.5591C8.28708 22.3109 8.01268 22.173 7.65595 22.173C6.91505 22.173 6.3388 22.7521 6.3388 23.5519C6.3388 24.3517 6.91505 24.9308 7.65595 24.9308C8.04012 24.9308 8.31452 24.793 8.47917 24.5447V24.8757H9.05542V23.5519ZM6.91505 23.5519C6.91505 23.0831 7.2169 22.697 7.71083 22.697C8.17732 22.697 8.50661 23.0555 8.50661 23.5519C8.50661 24.0208 8.17732 24.4069 7.71083 24.4069C7.2169 24.3793 6.91505 24.0208 6.91505 23.5519Z" fill="black"/>
<path d="M20.306 2.12366H11.6622V17.7331H20.306V2.12366Z" fill="#FF5F00"/>
<path d="M12.2111 9.92826C12.2111 6.75673 13.6929 3.94372 15.9704 2.12354C14.2965 0.799776 12.1836 0 9.87861 0C4.41794 0 0 4.44014 0 9.92826C0 15.4164 4.41794 19.8565 9.87861 19.8565C12.1836 19.8565 14.2965 19.0567 15.9704 17.733C13.6929 15.9404 12.2111 13.0998 12.2111 9.92826Z" fill="#EB001B"/>
<path d="M31.9684 9.92826C31.9684 15.4164 27.5504 19.8565 22.0897 19.8565C19.7847 19.8565 17.6718 19.0567 15.9979 17.733C18.3029 15.9128 19.7573 13.0998 19.7573 9.92826C19.7573 6.75673 18.2755 3.94372 15.9979 2.12354C17.6718 0.799776 19.7847 0 22.0897 0C27.5504 0 31.9684 4.46772 31.9684 9.92826Z" fill="#F79E1B"/>
</g>
<defs>
<clipPath id="clip0_2_1749">
<rect width="32" height="25" fill="white"/>
</clipPath>
</defs>
</svg>
