<svg width="82" height="11" viewBox="0 0 82 11" fill="none" xmlns="http://www.w3.org/2000/svg">
<path d="M14.4899 10.2501L16.6756 0H2.18576L0 10.2501H14.4899Z" fill="white"/>
<path fill-rule="evenodd" clip-rule="evenodd" d="M10.7745 2.14986C12.4574 2.54083 12.501 2.95336 12.501 2.95336C13.5938 2.95336 13.878 2.95336 14.0746 3.14879C14.7084 3.73519 13.6375 5.16845 13.6375 5.16845C13.5065 5.25531 1.44238 9.94597 1.44238 9.94597H14.1403L16.1727 0.412598H2.53512C2.53512 0.412598 10.5778 2.10637 10.7745 2.14986Z" fill="#333366"/>
<path fill-rule="evenodd" clip-rule="evenodd" d="M12.0203 3.53962C11.7368 3.63567 11.4437 3.70123 11.1461 3.73517C10.9712 3.75683 10.8838 3.75683 10.8838 3.80022C10.8838 3.86553 11.1241 3.84371 11.2117 3.84371C11.6051 3.84371 13.1568 3.73517 13.5283 3.80022C13.8124 3.84371 13.4846 4.40829 13.3971 4.75576C13.3753 4.88602 13.4627 4.82095 13.5065 4.75576C13.6959 4.45885 13.843 4.13727 13.9435 3.80022C13.9873 3.36598 13.6812 3.30082 13.1568 3.30082H12.3481C12.3251 3.29755 12.3017 3.30224 12.2818 3.31412C12.2619 3.32599 12.2467 3.34432 12.2388 3.36601C12.1733 3.43106 12.0641 3.49613 12.0203 3.53964L12.0203 3.53962Z" fill="#333366"/>
<path fill-rule="evenodd" clip-rule="evenodd" d="M6.9938 6.75376L0.502747 9.94597L2.07637 2.62769H8.63276C8.74201 2.62769 12.1514 2.62769 12.2171 3.30084H6.31623L7.23399 6.08051C8.28321 5.58097 10.862 4.53867 12.4137 4.47336C13.0694 4.45169 13.3316 4.56023 13.2005 4.64724C13.1131 4.69059 12.4793 4.77747 11.9766 4.90785C11.3552 5.04698 10.7422 5.22095 10.1407 5.42892C9.06753 5.81153 8.01692 6.25384 6.9938 6.75376H6.9938Z" fill="#333366"/>
<path fill-rule="evenodd" clip-rule="evenodd" d="M20.5874 10.163C18.0522 10.163 16.5442 9.16397 17.0469 6.92733C17.8774 3.06189 18.4239 0.477784 18.4239 0.477784H20.5437C20.5437 0.477784 19.2543 6.42782 19.2979 6.2976C18.9701 7.77422 19.2979 8.6646 20.9152 8.6646C22.4669 8.6646 23.2537 7.77421 23.5815 6.2976C23.7782 5.45059 24.8272 0.477784 24.8272 0.477784H26.9472C25.5266 6.92736 26.9472 0.477784 25.5484 6.92736C25.0239 9.14243 23.1007 10.1631 20.5874 10.1631V10.163Z" fill="#333366"/>
<path fill-rule="evenodd" clip-rule="evenodd" d="M38.2683 6.36277C37.8074 6.35812 37.3474 6.32185 36.8915 6.25423L37.1538 4.88602C37.416 4.90783 37.7656 4.95132 38.0935 4.95132C38.5723 4.98922 39.0485 4.85084 39.4314 4.56252C39.8142 4.27419 40.077 3.85605 40.1697 3.38769C40.3881 2.34526 39.8638 1.97611 39.0988 1.97611H37.3723L35.6676 9.98933H33.5476L35.5801 0.477784H40.1697C42.2459 0.477784 42.4863 2.28019 42.2241 3.47455C41.8306 5.2553 40.1477 6.36277 38.2683 6.36277H38.2683Z" fill="#333366"/>
<path fill-rule="evenodd" clip-rule="evenodd" d="M33.788 1.99791H31.5368C30.3786 1.99791 29.8759 2.23684 29.7665 2.69286C29.4387 4.21302 33.5693 5.40737 33.1759 7.75268C32.9573 9.05558 31.8209 9.98946 29.1764 9.98946H25.942L26.2697 8.46932H28.8486C29.6573 8.46932 30.6407 8.51282 30.8156 7.70918C31.1215 6.34123 27.0565 4.99469 27.3624 2.71456C27.5591 1.34646 28.783 0.477784 31.2527 0.477784L34.0938 0.477919L33.788 1.99791H33.788Z" fill="#333366"/>
<path fill-rule="evenodd" clip-rule="evenodd" d="M49.5454 1.99791H47.2945C46.136 1.99791 45.6335 2.23684 45.5241 2.69286C45.1964 4.21302 49.327 5.40737 48.9335 7.75268C48.715 9.05558 47.5784 9.98946 44.9341 9.98946H41.6994L42.0274 8.46932H44.628C45.4368 8.46932 46.4202 8.51282 46.595 7.70918C46.901 6.34123 42.8359 4.99469 43.1419 2.71456C43.3386 1.34646 44.5625 0.477784 47.0322 0.477784L49.8732 0.477919L49.5454 1.99791Z" fill="#333366"/>
<path fill-rule="evenodd" clip-rule="evenodd" d="M50.2666 8.29566C50.098 8.29569 49.9332 8.34538 49.7931 8.43845C49.6529 8.53152 49.5437 8.6638 49.4792 8.81855C49.4148 8.9733 49.3979 9.14357 49.4308 9.30784C49.4637 9.47211 49.5449 9.623 49.6641 9.74142C49.7833 9.85985 49.9352 9.94049 50.1005 9.97315C50.2658 10.0058 50.4372 9.98903 50.5929 9.92493C50.7486 9.86082 50.8817 9.75227 50.9754 9.613C51.069 9.47374 51.119 9.31 51.119 9.14251C51.1187 8.91797 51.0288 8.70271 50.869 8.54395C50.7092 8.38519 50.4925 8.2959 50.2666 8.29566Z" fill="#333366"/>
<path fill-rule="evenodd" clip-rule="evenodd" d="M82 0.434571L79.9236 9.96766H78.1533L79.7272 2.88846L75.5092 9.96766H73.6952L72.6898 3.34429L71.2256 9.96766H69.4772L71.5095 0.434571H74.0446L75.1156 7.44859L79.2243 0.434571H82Z" fill="#333366"/>
<path fill-rule="evenodd" clip-rule="evenodd" d="M55.8614 10.1632C54.7156 10.2131 53.5834 9.90143 52.6269 9.27272C52.1887 8.94202 51.8382 8.51009 51.6059 8.01438C51.3735 7.51866 51.2664 6.97413 51.2938 6.42798C51.2945 6.00366 51.3458 5.58092 51.4467 5.1686C52.146 1.75913 55.0091 0.239014 57.9157 0.239014C58.6349 0.245676 59.3519 0.318359 60.0576 0.456134L60.2106 0.477943L59.861 2.01975L59.7298 1.99793C59.249 1.95459 58.9211 1.91121 58.4841 1.91121C58.0898 1.91185 57.6958 1.93357 57.3038 1.97627C56.6181 2.03117 55.9605 2.27149 55.4024 2.6712C54.815 3.03734 54.328 3.54229 53.9847 4.14099C53.6415 4.73969 53.4528 5.41352 53.4355 6.10232C53.4166 6.4641 53.4959 6.82428 53.665 7.14518C53.8342 7.46607 54.0871 7.7359 54.3971 7.92643C55.1381 8.35662 55.9873 8.56759 56.8449 8.53452C57.3271 8.53872 57.8091 8.50973 58.2873 8.44777L58.5059 8.42598L58.178 9.92441L58.0688 9.94622C57.341 10.0839 56.6022 10.1565 55.8614 10.1632H55.8614Z" fill="#333366"/>
<path fill-rule="evenodd" clip-rule="evenodd" d="M65.5215 0.412598C62.5928 0.412598 60.1669 1.93274 59.4676 5.25531C58.8993 7.92629 60.5386 10.1197 63.4452 10.1197C66.3957 10.1197 68.7559 8.66474 69.499 5.25531C70.0673 2.47565 68.4063 0.412598 65.5215 0.412598ZM67.5321 5.27699C67.0731 7.6657 65.6307 8.68645 63.8168 8.68645C62.0246 8.68645 61.0411 7.14451 61.369 5.27701C61.806 2.93157 63.2922 1.88928 65.0842 1.88928C66.8765 1.86759 67.9036 3.32255 67.5321 5.27701V5.27699Z" fill="#333366"/>
</svg>
