<svg width="61" height="17" viewBox="0 0 61 17" fill="none" xmlns="http://www.w3.org/2000/svg">
<path d="M0.00552799 0.0115189C3.37209 -0.0104499 6.73867 0.00624636 10.1061 0.00362768C10.1198 1.23212 10.1195 2.46062 10.1053 3.68911C8.26362 3.69967 6.42139 3.69967 4.57856 3.68911C4.56577 4.4545 4.57034 5.21989 4.57582 5.98528C6.27141 5.97386 7.96611 5.98266 9.66172 5.97914C9.66901 6.65576 9.66446 7.33241 9.6608 8.00907C10.0504 7.45539 10.5214 6.95901 11.0589 6.5354C11.9535 5.89556 13.0104 5.49917 14.1188 5.38774C15.2149 5.32712 16.3483 5.31042 17.3887 5.69792C18.7174 6.11447 19.8216 7.0802 20.4614 8.26741C20.6343 8.59908 20.7882 8.93967 20.9222 9.28764C21.3694 7.87459 22.3861 6.61624 23.7568 5.9343C25.009 5.3339 26.452 5.21605 27.7914 5.60477C28.4539 5.80601 29.0215 6.20763 29.4952 6.68918C29.5016 4.45978 29.4979 2.23127 29.4961 0.00187017C30.8385 0.00714269 32.18 -0.00954482 33.5216 0.012424C33.4914 3.19172 33.5179 6.37192 33.5088 9.55126C33.5142 11.8228 33.4996 14.0953 33.5161 16.3669C32.1946 16.4073 30.8732 16.3836 29.5518 16.3827C29.5445 16.0268 29.5423 15.6715 29.5454 15.3167L29.5116 15.3651C28.9047 16.1322 28.0515 16.743 27.0549 16.9293C25.7942 17.1333 24.4996 16.884 23.4173 16.2289C21.8905 15.3062 20.8748 13.6744 20.6795 11.9573C18.1836 11.9502 15.6876 11.959 13.1916 11.952C13.052 11.9608 12.9005 11.9371 12.7728 12.0021C12.8002 12.3551 12.9096 12.6977 13.0928 13.0046C13.276 13.3115 13.5284 13.5749 13.8314 13.7754C14.5231 14.2368 15.4585 14.257 16.2197 13.9485C16.5527 13.7781 16.7882 13.4811 17.0264 13.2077C18.3241 13.2244 19.6227 13.2007 20.9204 13.2157C20.4039 14.5373 19.4183 15.728 18.0786 16.3431C16.8357 16.9284 15.3974 17.0532 14.0376 16.8888C12.4369 16.685 10.9165 15.8598 9.96743 14.5927C9.21112 13.5885 8.81776 12.3731 8.84767 11.133C8.82396 10.5926 8.93164 10.0601 8.99735 9.52578C7.52351 9.5214 6.04966 9.52492 4.57582 9.52401C4.57034 11.8202 4.57003 14.1167 4.57491 16.4134C3.05179 16.4363 1.52773 16.4134 0.00370279 16.4249C-0.00178191 10.9538 -0.00117352 5.48263 0.00552799 0.0115189ZM13.825 8.22258C13.3541 8.52401 13.0885 9.02487 12.916 9.52754C14.3452 9.53633 15.7724 9.56534 17.2007 9.52754C17.0601 9.12596 16.9105 8.69976 16.5728 8.40802C15.8427 7.76124 14.639 7.66281 13.825 8.22258ZM26.5776 8.39305C25.5738 8.62595 24.9313 9.57237 24.7989 10.5144C24.5717 11.5355 24.8674 12.7069 25.7115 13.3984C26.5165 14.0707 27.8415 14.0338 28.6136 13.3299C29.3382 12.5988 29.4769 11.5109 29.3446 10.5478C29.2205 9.89311 28.9841 9.1989 28.4247 8.76828C27.9127 8.36581 27.2128 8.26741 26.5776 8.39305V8.39305Z" fill="#312280"/>
<path d="M33.5211 0.0124517C36.6814 0.0229616 39.8411 0.0232486 43.0002 0.0133129C43.002 1.23477 43.0048 2.45537 42.9984 3.67682C41.1823 3.7199 39.3635 3.68648 37.5456 3.69351C37.5356 4.45981 37.4753 5.23485 37.5894 5.99586C39.3991 5.98355 41.2079 5.99148 43.0175 5.99148C42.9801 7.16373 43.0184 8.33773 42.9956 9.51087C41.1942 9.51791 39.3936 9.51439 37.5921 9.51264C37.4762 10.1348 37.5483 10.7684 37.5292 11.3967C37.531 11.8484 37.5009 12.3044 37.5867 12.7526C39.3745 12.7411 41.1632 12.7289 42.9509 12.7552C43.0714 13.1006 42.9719 13.4934 43.0011 13.8572C43.0367 14.6445 42.9172 15.446 43.0942 16.2219C43.7412 15.6059 44.3034 14.9125 44.9404 14.2869C45.4734 13.6322 46.0884 13.0478 46.6469 12.4143C47.0138 12.0127 47.4436 11.6585 47.7494 11.2086C47.7052 11.123 47.6507 11.0428 47.5869 10.9696C46.6825 9.99329 45.7772 9.01845 44.871 8.0451C44.2742 7.35179 43.5815 6.73577 43.0312 6.00727C44.2176 5.96951 45.4067 5.99938 46.594 5.98973C47.0795 6.00024 47.5668 5.96424 48.0514 6.00727C48.9193 6.77091 49.5946 7.72437 50.4945 8.45989C51.1241 7.75161 51.7876 7.0741 52.4 6.35174C52.5551 6.19093 52.7075 5.94665 52.973 5.98883C54.5163 6.00024 56.0604 5.96951 57.6036 6.00552C57.4042 6.30276 57.1726 6.57877 56.9127 6.82892C55.584 8.27097 54.226 9.68839 52.9247 11.1524C53.3965 11.858 54.0937 12.3976 54.6367 13.054C55.3942 13.8194 56.1124 14.619 56.8516 15.4011C57.1473 15.7359 57.4786 16.0444 57.7186 16.4214C56.169 16.4442 54.6175 16.4205 53.0671 16.431C52.8854 16.4214 52.6683 16.4609 52.5332 16.3133C51.7775 15.496 51.0365 14.6621 50.2517 13.8695C49.5727 14.6164 48.8582 15.3326 48.2057 16.1024C48.066 16.2518 47.9282 16.4653 47.6864 16.4284C41.6258 16.4328 35.5647 16.4299 29.5029 16.4196C29.4965 16.0681 29.4855 15.7157 29.5111 15.3651L29.5449 15.3168C29.5412 15.6718 29.5433 16.0271 29.5513 16.3827C30.8727 16.3836 32.1941 16.4073 33.5156 16.3669C33.4991 14.0953 33.5137 11.8229 33.5083 9.55129C33.5174 6.37195 33.4909 3.19175 33.5211 0.0124517Z" fill="#FF5F00"/>
<path d="M59.6714 14.3037C60.3094 14.1201 61.0924 14.686 60.991 15.3503C61.1106 16.1596 60.0055 16.6517 59.353 16.2422C58.5079 15.86 58.7406 14.4373 59.6714 14.3037ZM59.6824 14.519C59.3274 14.6218 58.9943 14.9724 59.0445 15.3503C58.9961 15.9619 59.7983 16.3916 60.3349 16.1007C60.9007 15.8547 60.9682 14.9883 60.4636 14.6508C60.2345 14.5032 59.948 14.4926 59.6824 14.519V14.519Z" fill="#FF5F00"/>
<path d="M59.4797 14.6919C59.7636 14.7007 60.0747 14.6366 60.3357 14.7737C60.3322 15.1413 60.3493 15.5089 60.3868 15.8747C60.364 15.9239 60.3193 16.0215 60.2965 16.0707C60.1468 15.8158 60.0866 15.4995 59.8183 15.3282C59.7535 15.5566 59.6978 15.7886 59.6349 16.0179C59.3574 15.6331 59.5464 15.1295 59.4797 14.6919ZM59.7544 14.9318C59.7581 15.032 59.7626 15.1322 59.7672 15.2332C59.8612 15.2253 59.9561 15.2183 60.051 15.2121C60.0629 15.1199 60.0747 15.0285 60.0875 14.9371C59.9752 14.9353 59.8648 14.9336 59.7544 14.9318Z" fill="#FF5F00"/>
</svg>
