<svg width="24" height="24" viewBox="0 0 24 24" fill="none" xmlns="http://www.w3.org/2000/svg">
<path d="M8.04446 0.643626C5.1579 1.65782 2.66141 3.84225 1.25714 6.57278C0.789048 7.50897 0.398972 8.52316 0.242941 9.61538C-0.303165 12.1899 0.0869111 14.9984 1.25714 17.3389C2.03729 18.8992 3.12951 20.2254 4.53378 21.3177C5.78202 22.3319 7.26431 23.112 8.90263 23.5021C10.931 24.0482 13.0374 24.0482 14.9878 23.5801C16.7822 23.19 18.4985 22.3319 19.9028 21.0056C21.3851 19.6793 22.3993 17.963 22.9454 16.0126C23.5695 13.9842 23.6475 11.7998 23.2574 9.69339C19.5127 9.69339 15.768 9.69339 12.0232 9.69339C12.0232 11.2537 12.0232 12.814 12.0232 14.3743C14.2077 14.3743 16.3921 14.3743 18.4985 14.3743C18.2645 15.8566 17.3283 17.2609 16.08 18.041C15.2999 18.5871 14.3637 18.8992 13.4275 19.0552C12.4913 19.2113 11.4771 19.2113 10.541 19.0552C9.60477 18.8992 8.66859 18.4311 7.88843 17.885C6.64019 17.0268 5.62599 15.7006 5.1579 14.2183C4.61179 12.736 4.61179 11.0977 5.1579 9.53736C5.54798 8.52316 6.09408 7.50897 6.87424 6.72881C7.81042 5.71461 9.05866 5.01248 10.4629 4.77843C11.6332 4.54439 12.8034 4.54439 13.9736 4.93446C14.9098 5.24652 15.846 5.79263 16.5481 6.41675C17.2503 5.71462 18.0304 4.93446 18.7326 4.23233C19.1226 3.84225 19.5127 3.45217 19.9028 3.0621C18.8106 2.0479 17.4843 1.18973 16.08 0.643626C13.5055 -0.214542 10.619 -0.214542 8.04446 0.643626Z" fill="white"/>
<path d="M8.0444 0.643713C10.6189 -0.214454 13.5055 -0.214454 16.08 0.721729C17.4842 1.26784 18.8105 2.04799 19.9027 3.1402C19.5126 3.53028 19.1226 3.92035 18.7325 4.31043C18.0304 5.01257 17.2502 5.79272 16.5481 6.49486C15.8459 5.79272 14.9097 5.24661 13.9736 5.01257C12.8813 4.70051 11.6331 4.62249 10.4629 4.85654C9.13662 5.1686 7.88837 5.87073 6.87418 6.80692C6.09402 7.58707 5.4699 8.60127 5.15784 9.61547C3.83158 8.60127 2.58334 7.58707 1.25708 6.57287C2.66135 3.84234 5.15784 1.65791 8.0444 0.643713Z" fill="#EA4335"/>
<path d="M0.242941 9.61535C0.476987 8.60115 0.789048 7.58695 1.25714 6.57275C2.5834 7.58695 3.83164 8.60115 5.1579 9.61535C4.61179 11.0976 4.61179 12.736 5.1579 14.2963C3.83164 15.3105 2.5834 16.3247 1.25714 17.3389C0.0869111 14.9204 -0.303165 12.1899 0.242941 9.61535Z" fill="#FBBC05"/>
<path d="M11.9453 9.69336C15.69 9.69336 19.4348 9.69336 23.1795 9.69336C23.5696 11.7998 23.4916 13.9842 22.8674 16.0126C22.3213 17.885 21.3071 19.6013 19.8249 21.0056C18.5766 19.9914 17.3284 19.0552 16.0021 18.041C17.2503 17.1828 18.1085 15.8566 18.4206 14.3743C16.2361 14.3743 14.0517 14.3743 11.9453 14.3743C11.9453 12.814 11.9453 11.2537 11.9453 9.69336Z" fill="#4285F4"/>
<path d="M1.25708 17.339C2.58334 16.3248 3.83158 15.3106 5.15784 14.2964C5.62593 15.7787 6.64013 17.1049 7.88838 17.9631C8.66853 18.5092 9.60471 18.8993 10.5409 19.1333C11.4771 19.2894 12.4133 19.2894 13.4275 19.1333C14.3636 18.9773 15.2998 18.5872 16.08 18.1191C17.3282 19.1333 18.5765 20.0695 19.9027 21.0837C18.4984 22.332 16.8601 23.1901 14.9878 23.6582C12.9594 24.1263 10.853 24.1263 8.90257 23.5802C7.34227 23.1901 5.85998 22.41 4.53372 21.3958C3.20746 20.2255 2.03723 18.8213 1.25708 17.339Z" fill="#34A853"/>
</svg>
