<svg width="71" height="16" viewBox="0 0 71 16" fill="none" xmlns="http://www.w3.org/2000/svg">
<path d="M70.9997 0V16H0V0H70.9997Z" fill="#FFCC00"/>
<path d="M12.4858 2.87329L10.2175 6.02031H22.5804C23.2054 6.02031 23.1971 6.26278 22.8917 6.68527C22.5816 7.1143 22.0624 7.86019 21.7464 8.29572C21.5861 8.51689 21.2962 8.91964 22.2569 8.91964H27.3126C27.3126 8.91964 28.1275 7.78731 28.8105 6.84069C29.7399 5.55301 28.8911 2.87329 25.5689 2.87329H12.4858Z" fill="#BF190E"/>
<path d="M9.29955 13.1259L13.8557 6.80419C13.8557 6.80419 18.9066 6.80424 19.5098 6.80424C20.1347 6.80424 20.1265 7.04671 19.8211 7.46926C19.511 7.8983 18.9832 8.63624 18.6673 9.07198C18.5069 9.29302 18.2171 9.69652 19.1776 9.69652H26.7521C26.1223 10.5777 24.0789 13.1259 20.4098 13.1259H9.29955Z" fill="#BF190E"/>
<path d="M35.3931 9.69579L32.9224 13.1259H26.4048C26.4048 13.1259 28.8742 9.69653 28.8764 9.69653L35.3931 9.69579Z" fill="#BF190E"/>
<path d="M45.378 8.91968H29.4364L33.7957 2.87329H40.3114L37.8128 6.34043H40.7213L43.2208 2.87329H49.7359L45.378 8.91968Z" fill="#BF190E"/>
<path d="M44.8183 9.69652L42.3463 13.1259H35.8311C35.8311 13.1259 38.3006 9.69652 38.3028 9.69652H44.8183Z" fill="#BF190E"/>
<path d="M0 11.0488H9.60133L9.07672 11.7775H0V11.0488Z" fill="#BF190E"/>
<path d="M0 9.69628H10.5768L10.0513 10.4239H0V9.69628Z" fill="#BF190E"/>
<path d="M0 12.4018H8.62637L8.10439 13.1258H0V12.4018Z" fill="#BF190E"/>
<path d="M71 11.7775H61.4354L61.9602 11.0488H71V11.7775Z" fill="#BF190E"/>
<path d="M70.9999 13.1258L60.4629 13.1267L60.9849 12.4018H70.9999V13.1258Z" fill="#BF190E"/>
<path d="M62.9344 9.69628H71V10.4243L62.4103 10.4248L62.9344 9.69628Z" fill="#BF190E"/>
<path d="M58.7595 2.87329L54.4007 8.91964H47.4968C47.4968 8.91964 51.8563 2.87329 51.8585 2.87329H58.7595Z" fill="#BF190E"/>
<path d="M46.9379 9.69652C46.9379 9.69652 46.4616 10.3612 46.2302 10.6806C45.4118 11.81 46.1353 13.1259 48.8061 13.1259H59.2699L61.7416 9.69652H46.9379Z" fill="#BF190E"/>
</svg>
