<svg width="13" height="13" viewBox="0 0 13 13" fill="none" xmlns="http://www.w3.org/2000/svg">
<path fill-rule="evenodd" clip-rule="evenodd" d="M0 13H2.36364V5.2H0V13ZM13 5.85C13 5.135 12.4682 4.55 11.8182 4.55H8.08955L8.65091 1.5795L8.66864 1.3715C8.66864 1.105 8.56818 0.858 8.40864 0.6825L7.78227 0L3.89409 4.2835C3.67545 4.5175 3.54545 4.8425 3.54545 5.2V11.7C3.54545 12.415 4.07727 13 4.72727 13H10.0455C10.5359 13 10.9555 12.675 11.1327 12.207L12.9173 7.6245C12.9705 7.475 13 7.319 13 7.15V5.9085L12.9941 5.902L13 5.85Z" fill="#9B9B9B"/>
</svg>
