<svg width="26" height="26" viewBox="0 0 26 26" fill="none" xmlns="http://www.w3.org/2000/svg">
<g clip-path="url(#clip0_0_316)">
<path d="M13 16.4667C14.9146 16.4667 16.4667 14.9146 16.4667 13C16.4667 11.0854 14.9146 9.53333 13 9.53333C11.0854 9.53333 9.53333 11.0854 9.53333 13C9.53333 14.9146 11.0854 16.4667 13 16.4667Z" fill="white"/>
<path d="M9.74996 2.16663L7.76746 4.33329H4.33329C3.14163 4.33329 2.16663 5.30829 2.16663 6.49996V19.5C2.16663 20.6916 3.14163 21.6666 4.33329 21.6666H21.6666C22.8583 21.6666 23.8333 20.6916 23.8333 19.5V6.49996C23.8333 5.30829 22.8583 4.33329 21.6666 4.33329H18.2325L16.25 2.16663H9.74996ZM13 18.4166C10.01 18.4166 7.58329 15.99 7.58329 13C7.58329 10.01 10.01 7.58329 13 7.58329C15.99 7.58329 18.4166 10.01 18.4166 13C18.4166 15.99 15.99 18.4166 13 18.4166Z" fill="white"/>
</g>
<defs>
<clipPath id="clip0_0_316">
<rect width="26" height="26" fill="white"/>
</clipPath>
</defs>
</svg>
