<svg width="32" height="25" viewBox="0 0 32 25" fill="none" xmlns="http://www.w3.org/2000/svg">
<g clip-path="url(#clip0_2_1829)">
<path d="M5.81746 24.8758V23.2211C5.81746 22.5868 5.43329 22.1731 4.77472 22.1731C4.44543 22.1731 4.0887 22.2834 3.84174 22.642C3.64965 22.3386 3.37525 22.1731 2.96364 22.1731C2.68923 22.1731 2.41483 22.2559 2.1953 22.5592V22.2283H1.61905V24.8758H2.1953V23.4142C2.1953 22.9453 2.44227 22.7247 2.82644 22.7247C3.2106 22.7247 3.40269 22.9729 3.40269 23.4142V24.8758H3.97894V23.4142C3.97894 22.9453 4.25335 22.7247 4.61007 22.7247C4.99424 22.7247 5.18633 22.9729 5.18633 23.4142V24.8758H5.81746ZM14.3515 22.2283H13.4185V21.4285H12.8423V22.2283H12.3209V22.7523H12.8423V23.9657C12.8423 24.5725 13.0892 24.931 13.7478 24.931C13.9948 24.931 14.2692 24.8482 14.4612 24.7379L14.2966 24.2415C14.132 24.3518 13.9399 24.3794 13.8027 24.3794C13.5283 24.3794 13.4185 24.2139 13.4185 23.9381V22.7523H14.3515V22.2283ZM19.2359 22.1731C18.9066 22.1731 18.6871 22.3386 18.5499 22.5592V22.2283H17.9736V24.8758H18.5499V23.3866C18.5499 22.9453 18.742 22.6971 19.0987 22.6971C19.2085 22.6971 19.3457 22.7247 19.4554 22.7523L19.6201 22.2007C19.5103 22.1731 19.3457 22.1731 19.2359 22.1731ZM11.8544 22.4489C11.58 22.2559 11.1958 22.1731 10.7842 22.1731C10.1256 22.1731 9.68658 22.5041 9.68658 23.0281C9.68658 23.4693 10.0159 23.7175 10.5921 23.8003L10.8665 23.8278C11.1684 23.883 11.333 23.9657 11.333 24.1036C11.333 24.2967 11.1135 24.4346 10.7293 24.4346C10.3452 24.4346 10.0433 24.2967 9.85123 24.1588L9.57682 24.6C9.87867 24.8207 10.2903 24.931 10.7019 24.931C11.4702 24.931 11.9093 24.5725 11.9093 24.076C11.9093 23.6072 11.5525 23.359 11.0037 23.2763L10.7293 23.2487C10.4824 23.2211 10.2903 23.1659 10.2903 23.0005C10.2903 22.8074 10.4824 22.6971 10.7842 22.6971C11.1135 22.6971 11.4428 22.835 11.6074 22.9177L11.8544 22.4489ZM27.1662 22.1731C26.837 22.1731 26.6174 22.3386 26.4802 22.5592V22.2283H25.904V24.8758H26.4802V23.3866C26.4802 22.9453 26.6723 22.6971 27.029 22.6971C27.1388 22.6971 27.276 22.7247 27.3858 22.7523L27.5504 22.2007C27.4406 22.1731 27.276 22.1731 27.1662 22.1731ZM19.8122 23.552C19.8122 24.3518 20.361 24.931 21.2116 24.931C21.5958 24.931 21.8702 24.8482 22.1446 24.6276L21.8702 24.1588C21.6507 24.3242 21.4312 24.407 21.1842 24.407C20.7177 24.407 20.3884 24.076 20.3884 23.552C20.3884 23.0556 20.7177 22.7247 21.1842 22.6971C21.4312 22.6971 21.6507 22.7798 21.8702 22.9453L22.1446 22.4765C21.8702 22.2559 21.5958 22.1731 21.2116 22.1731C20.361 22.1731 19.8122 22.7523 19.8122 23.552ZM25.1356 23.552V22.2283H24.5594V22.5592C24.3673 22.311 24.0929 22.1731 23.7362 22.1731C22.9953 22.1731 22.419 22.7523 22.419 23.552C22.419 24.3518 22.9953 24.931 23.7362 24.931C24.1203 24.931 24.3947 24.7931 24.5594 24.5449V24.8758H25.1356V23.552ZM23.0227 23.552C23.0227 23.0832 23.3246 22.6971 23.8185 22.6971C24.285 22.6971 24.6143 23.0556 24.6143 23.552C24.6143 24.0209 24.285 24.407 23.8185 24.407C23.3246 24.3794 23.0227 24.0209 23.0227 23.552ZM16.1351 22.1731C15.3668 22.1731 14.818 22.7247 14.818 23.552C14.818 24.3794 15.3668 24.931 16.1626 24.931C16.5467 24.931 16.9309 24.8207 17.2327 24.5725L16.9583 24.1588C16.7388 24.3242 16.4644 24.4346 16.19 24.4346C15.8333 24.4346 15.4765 24.2691 15.3942 23.8003H17.3425V23.5796C17.37 22.7247 16.876 22.1731 16.1351 22.1731ZM16.1351 22.6695C16.4919 22.6695 16.7388 22.8902 16.7937 23.3038H15.4217C15.4765 22.9453 15.7235 22.6695 16.1351 22.6695ZM30.4317 23.552V21.1803H29.8554V22.5592C29.6633 22.311 29.3889 22.1731 29.0322 22.1731C28.2913 22.1731 27.7151 22.7523 27.7151 23.552C27.7151 24.3518 28.2913 24.931 29.0322 24.931C29.4164 24.931 29.6908 24.7931 29.8554 24.5449V24.8758H30.4317V23.552ZM28.3187 23.552C28.3187 23.0832 28.6206 22.6971 29.1145 22.6971C29.581 22.6971 29.9103 23.0556 29.9103 23.552C29.9103 24.0209 29.581 24.407 29.1145 24.407C28.6206 24.3794 28.3187 24.0209 28.3187 23.552ZM9.05545 23.552V22.2283H8.4792V22.5592C8.28711 22.311 8.01271 22.1731 7.65598 22.1731C6.91508 22.1731 6.33883 22.7523 6.33883 23.552C6.33883 24.3518 6.91508 24.931 7.65598 24.931C8.04015 24.931 8.31455 24.7931 8.4792 24.5449V24.8758H9.05545V23.552ZM6.91508 23.552C6.91508 23.0832 7.21693 22.6971 7.71086 22.6971C8.17735 22.6971 8.50664 23.0556 8.50664 23.552C8.50664 24.0209 8.17735 24.407 7.71086 24.407C7.21693 24.3794 6.91508 24.0209 6.91508 23.552Z" fill="white"/>
<path d="M20.306 2.12366H11.6622V17.7331H20.306V2.12366Z" fill="#FF5F00"/>
<path d="M12.2111 9.92826C12.2111 6.75673 13.6929 3.94372 15.9704 2.12354C14.2965 0.799776 12.1836 0 9.87861 0C4.41794 0 0 4.44014 0 9.92826C0 15.4164 4.41794 19.8565 9.87861 19.8565C12.1836 19.8565 14.2965 19.0567 15.9704 17.733C13.6929 15.9404 12.2111 13.0998 12.2111 9.92826Z" fill="#EB001B"/>
<path d="M31.9683 9.92826C31.9683 15.4164 27.5504 19.8565 22.0897 19.8565C19.7847 19.8565 17.6718 19.0567 15.9979 17.733C18.3029 15.9128 19.7573 13.0998 19.7573 9.92826C19.7573 6.75673 18.2755 3.94372 15.9979 2.12354C17.6718 0.799776 19.7847 0 22.0897 0C27.5504 0 31.9683 4.46772 31.9683 9.92826Z" fill="#F79E1B"/>
</g>
<defs>
<clipPath id="clip0_2_1829">
<rect width="32" height="25" fill="white"/>
</clipPath>
</defs>
</svg>
