<svg width="218" height="211" viewBox="0 0 218 211" fill="none" xmlns="http://www.w3.org/2000/svg">
<path d="M89.444 66.207L87.5893 66.1256C87.6998 63.5957 88.8106 41.2906 93.6928 37.2217C94.0029 36.9446 94.3685 36.737 94.7652 36.6128C95.1619 36.4885 95.5806 36.4505 95.9932 36.5013C98.8997 36.9061 102.073 41.518 105.696 50.6008C108.276 57.0676 110.135 63.5156 110.154 63.58L108.37 64.0929C108.351 64.0292 106.514 57.6592 103.968 51.2777C99.4718 40.0104 96.7143 38.4774 95.7375 38.3415C95.5807 38.3245 95.4221 38.3434 95.2737 38.3967C95.1253 38.45 94.991 38.5364 94.8808 38.6493C91.2783 41.6513 89.7349 59.5597 89.444 66.207Z" fill="black"/>
<path d="M73.0582 54.1717L71.2015 100.761L132.461 94.1583L124.888 49.1771L73.0582 54.1717Z" fill="#FFBA49"/>
<path d="M124.888 49.1771L120.382 49.6112L126.38 89.0552L71.4161 95.3837L71.2015 100.761L132.461 94.1583L124.888 49.1771Z" fill="#FFA113"/>
<path d="M157.984 129.29L155.436 129.007C155.458 128.807 157.574 108.876 150.713 101.423C149.907 100.517 148.906 99.8044 147.785 99.3399C146.665 98.8755 145.454 98.6709 144.243 98.7415C129.299 99.1666 122.272 124.831 122.203 125.09L119.726 124.427C121.107 119.635 123.024 115.014 125.441 110.652C130.648 101.383 137.124 96.3777 144.17 96.1774C145.748 96.0965 147.323 96.3696 148.782 96.9768C150.24 97.584 151.545 98.5099 152.6 99.6868C160.249 107.999 158.08 128.424 157.984 129.29Z" fill="#FFBA49"/>
<path d="M112.523 111.012L166.599 117.429L165.761 203.237L93.5761 194.634L112.523 111.012Z" fill="#DB3022"/>
<path d="M166.599 117.429L161.244 116.794L158.636 196.189L94.5928 190.146L93.5761 194.634L165.761 203.237L166.599 117.429Z" fill="#D10505"/>
<path d="M180.152 144.699C182.614 145.216 184.961 143.246 185.392 140.295C185.852 141.08 186.311 141.865 186.77 142.652C186.339 145.602 183.992 147.572 181.532 147.056C181.072 146.27 180.612 145.484 180.152 144.699Z" fill="#FFBA49"/>
<path d="M107.423 207.806C109.886 208.322 112.232 206.352 112.664 203.402C113.123 204.187 113.583 204.972 114.042 205.758C113.611 208.708 111.263 210.68 108.803 210.163C108.344 209.377 107.884 208.591 107.423 207.806Z" fill="#9B9B9B"/>
<path d="M185.652 95.3168C186.684 98.043 189.365 99.2545 191.643 98.0173C191.361 98.9156 191.079 99.8138 190.796 100.712C188.518 101.946 185.837 100.737 184.805 98.0094C185.089 97.1129 185.371 96.2153 185.652 95.3168Z" fill="#FF5C00"/>
<path d="M169.715 75.9513C170.131 72.9977 168.47 70.2012 166.005 69.7036C166.657 69.1471 167.309 68.5907 167.962 68.0344C170.426 68.5319 172.088 71.3297 171.673 74.282C171.021 74.8387 170.369 75.3951 169.715 75.9513Z" fill="#021193"/>
<path d="M21.7261 64.0316C22.1418 61.0781 20.481 58.2814 18.0153 57.7839C18.6673 57.2273 19.3199 56.6709 19.9732 56.1147C22.437 56.6122 24.0987 59.4099 23.6841 62.3624C23.0321 62.9189 22.3794 63.4753 21.7261 64.0316Z" fill="#FF5C00"/>
<path d="M72.1555 168.685C72.5713 165.731 70.9104 162.934 68.4448 162.437C69.0968 161.88 69.7494 161.324 70.4026 160.768C72.8664 161.265 74.5282 164.063 74.1135 167.016C73.4615 167.572 72.8088 168.128 72.1555 168.685Z" fill="#FF5C00"/>
<path d="M201.503 58.0054C203.949 58.6229 206.349 56.7479 206.864 53.8159C207.301 54.6192 207.739 55.4231 208.176 56.2277C207.662 59.1567 205.261 61.0329 202.816 60.4172C202.378 59.6139 201.94 58.81 201.503 58.0054Z" fill="#FFBA49"/>
<path d="M5.82573 94.2883C4.94885 91.4831 2.34133 90.0606 0 91.1124C0.331199 90.2403 0.662885 89.367 0.995059 88.4926C3.33445 87.442 5.94342 88.8633 6.82079 91.6673C6.4896 92.5406 6.15792 93.4143 5.82573 94.2883Z" fill="#FFBA49"/>
<path d="M66.5906 128.456C66.7633 131.443 68.9253 133.696 71.4184 133.488C70.8926 134.214 70.3659 134.936 69.8411 135.661C67.347 135.867 65.186 133.612 65.0133 130.625C65.5391 129.903 66.0648 129.18 66.5906 128.456Z" fill="#DB3022"/>
<path d="M48.9701 74.1832C51.4463 73.7716 53.1745 71.0324 52.8299 68.0658C53.4696 68.6451 54.1083 69.2236 54.7461 69.8015C55.0896 72.7692 53.3624 75.5068 50.8863 75.9201C50.2485 75.3407 49.6098 74.7618 48.9701 74.1832Z" fill="#021193"/>
<path d="M149.939 37.8048C146.728 37.9111 149.036 43.5686 145.825 43.6773C145.212 43.0604 144.598 42.4435 143.985 41.8266C147.196 41.7198 144.888 36.0622 148.099 35.9537C148.713 36.5706 149.326 37.1876 149.939 37.8048Z" fill="#FF5C00"/>
<path d="M155.774 186.503C152.649 185.616 153.661 191.795 150.535 190.909C150.075 190.124 149.615 189.338 149.155 188.552C152.281 189.439 151.268 183.26 154.395 184.147C154.854 184.933 155.314 185.718 155.774 186.503Z" fill="#FFBA49"/>
<path d="M62.8338 194.547C60.6264 197.344 65.5975 199.393 63.39 202.188C62.5928 202.27 61.7946 202.355 60.9974 202.436C63.2049 199.641 58.2337 197.594 60.4412 194.797C61.2394 194.715 62.0369 194.632 62.8338 194.547Z" fill="#021193"/>
<path d="M134.339 1.42304C131.196 2.22293 134.316 7.2921 131.174 8.09027C130.479 7.61498 129.781 7.14143 129.086 6.66498C132.229 5.86727 129.107 0.799933 132.25 0C132.947 0.476441 133.643 0.950788 134.339 1.42304Z" fill="#DB3022"/>
<path d="M33.4723 18.0863C35.0183 21.4611 38.1695 16.4204 39.7132 19.7942C39.5339 20.7282 39.3568 21.6657 39.1765 22.6004C37.6329 19.2256 34.4835 24.2678 32.9375 20.8931C33.1173 19.9561 33.2956 19.0205 33.4723 18.0863Z" fill="#9B9B9B"/>
<path d="M6.82085 150.778C7.23553 150.703 7.61069 150.485 7.88085 150.161C8.15101 149.837 8.29901 149.429 8.29901 149.007C8.29901 148.585 8.15101 148.177 7.88085 147.853C7.61069 147.53 7.23553 147.311 6.82085 147.236" fill="black"/>
<path d="M174.596 13.9448C173.245 13.9448 172.146 12.628 172.146 11.0093C172.146 9.39068 173.245 8.07399 174.596 8.07399C175.947 8.07399 177.046 9.39072 177.046 11.0093C177.046 12.628 175.947 13.9448 174.596 13.9448ZM174.596 9.23835C174.167 9.28079 173.772 9.49015 173.495 9.82136C173.219 10.1526 173.083 10.5792 173.118 11.0093C173.079 11.2259 173.088 11.4485 173.144 11.6612C173.2 11.874 173.302 12.0719 173.443 12.2408C173.584 12.4097 173.76 12.5456 173.96 12.6388C174.159 12.7321 174.376 12.7804 174.596 12.7804C174.816 12.7804 175.033 12.7321 175.232 12.6388C175.432 12.5456 175.608 12.4097 175.749 12.2408C175.89 12.0719 175.992 11.874 176.048 11.6612C176.104 11.4485 176.113 11.2259 176.074 11.0093C176.109 10.5792 175.973 10.1526 175.697 9.82138C175.42 9.49017 175.025 9.28081 174.596 9.23835Z" fill="black"/>
<path d="M31.9745 125.156C30.6236 125.156 29.5246 123.84 29.5246 122.221C29.5246 120.602 30.6236 119.286 31.9745 119.286C33.3254 119.286 34.4245 120.602 34.4245 122.221C34.4245 123.84 33.3255 125.156 31.9745 125.156ZM31.9745 120.45C31.5598 120.525 31.1847 120.744 30.9145 121.067C30.6444 121.391 30.4964 121.799 30.4964 122.221C30.4964 122.643 30.6444 123.051 30.9145 123.375C31.1847 123.699 31.5598 123.917 31.9745 123.992C32.3892 123.917 32.7644 123.699 33.0345 123.375C33.3047 123.051 33.4527 122.643 33.4527 122.221C33.4527 121.799 33.3047 121.391 33.0345 121.067C32.7644 120.744 32.3892 120.525 31.9745 120.45Z" fill="black"/>
<path d="M217.005 154.335C216.128 151.53 213.52 150.107 211.179 151.159C211.51 150.287 211.842 149.413 212.174 148.539C214.514 147.488 217.123 148.91 218 151.714C217.669 152.587 217.337 153.461 217.005 154.335Z" fill="black"/>
</svg>
