<svg width="24" height="23" viewBox="0 0 24 23" fill="none" xmlns="http://www.w3.org/2000/svg">
<path fill-rule="evenodd" clip-rule="evenodd" d="M6 19H8.36364V11.2H6V19ZM19 11.85C19 11.135 18.4682 10.55 17.8182 10.55H14.0895L14.6509 7.5795L14.6686 7.3715C14.6686 7.105 14.5682 6.858 14.4086 6.6825L13.7823 6L9.89409 10.2835C9.67545 10.5175 9.54545 10.8425 9.54545 11.2V17.7C9.54545 18.415 10.0773 19 10.7273 19H16.0455C16.5359 19 16.9555 18.675 17.1327 18.207L18.9173 13.6245C18.9705 13.475 19 13.319 19 13.15V11.9085L18.9941 11.902L19 11.85Z" fill="#9B9B9B"/>
</svg>
