<svg width="46" height="46" viewBox="0 0 46 46" fill="none" xmlns="http://www.w3.org/2000/svg">
<path d="M32.8758 28.9307H30.7981L30.0617 28.2206C32.6391 25.2223 34.1909 21.3298 34.1909 17.0954C34.1909 7.6535 26.5374 0 17.0954 0C7.6535 0 0 7.6535 0 17.0954C0 26.5374 7.6535 34.1909 17.0954 34.1909C21.3298 34.1909 25.2223 32.6391 28.2206 30.0617L28.9307 30.7981V32.8758L42.0811 45.9999L45.9999 42.0811L32.8758 28.9307ZM17.0954 28.9307C10.5466 28.9307 5.26013 23.6443 5.26013 17.0954C5.26013 10.5466 10.5466 5.26013 17.0954 5.26013C23.6443 5.26013 28.9307 10.5466 28.9307 17.0954C28.9307 23.6443 23.6443 28.9307 17.0954 28.9307Z" fill="#DB3022"/>
</svg>
