<svg width="16" height="16" viewBox="0 0 16 16" fill="none" xmlns="http://www.w3.org/2000/svg">
<path d="M14.3749 13.0484L13.3333 3.24845C13.3333 2.63233 12.856 2.1333 12.2666 2.1333H7.99998H3.73331C3.14398 2.1333 2.66664 2.63233 2.66664 3.24845L1.62504 13.0484C1.60958 13.1248 1.59998 13.2034 1.59998 13.2848C1.59998 13.9009 2.07731 14.4 2.66664 14.4H7.99998H13.3333C13.9226 14.4 14.4 13.9009 14.4 13.2848C14.4 13.2034 14.3904 13.1248 14.3749 13.0484ZM10.6666 4.86988V5.47876C10.6666 7.01599 9.47038 8.26663 7.99998 8.26663C6.52958 8.26663 5.33331 7.01599 5.33331 5.47876V4.86988C5.02344 4.75502 4.79998 4.44836 4.79998 4.08482C4.79998 3.62314 5.15838 3.24845 5.59998 3.24845C6.04158 3.24845 6.39998 3.62314 6.39998 4.08482V5.47876C6.39998 6.40099 7.11784 7.15148 7.99998 7.15148C8.88211 7.15148 9.59998 6.40099 9.59998 5.47876V4.08482C9.59998 3.62314 9.95837 3.24845 10.4 3.24845C10.8416 3.24845 11.2 3.62314 11.2 4.08482C11.2 4.44836 10.9765 4.75502 10.6666 4.86988Z" fill="#F9F9F9"/>
</svg>
