<svg width="202" height="132" viewBox="0 0 202 132" fill="none" xmlns="http://www.w3.org/2000/svg">
<path d="M201.995 66C201.988 78.1292 198.67 90.0225 192.403 100.377C186.137 110.731 177.164 119.146 166.467 124.701C165.841 125.031 165.205 125.347 164.564 125.652C164.276 125.795 163.993 125.927 163.7 126.06C161.873 126.905 159.998 127.663 158.075 128.335C156.561 128.869 155.005 129.353 153.435 129.77C138.603 133.752 122.856 132.371 108.93 125.866C108.359 125.596 107.789 125.322 107.228 125.037C96.8012 119.779 87.956 111.809 81.6064 101.952C75.2569 92.0955 71.6334 80.7081 71.1102 68.967C70.587 57.2258 73.1831 45.5568 78.6303 35.1656C84.0775 24.7743 92.1783 16.0377 102.096 9.85855C112.013 3.67936 123.387 0.28168 135.043 0.0165558C146.698 -0.248568 158.213 2.62848 168.396 8.35045C178.58 14.0724 187.063 22.4318 192.97 32.5647C198.877 42.6977 201.992 54.2368 201.995 65.9898V66Z" fill="url(#paint0_linear_1_250)"/>
<path d="M110.854 106.742L103.623 95.3554C103.623 95.3554 123.654 72.0116 125.658 70.6321C125.658 70.6321 115.554 87.7201 110.854 106.742Z" fill="url(#paint1_linear_1_250)"/>
<path d="M103.623 95.3554L89.9895 107.572L64.9092 95.3554L45.7216 96.4142C45.7216 96.4142 57.6734 100.486 61.0363 100.318L64.4043 100.15C64.4043 100.15 85.0007 120.17 89.737 121.697C94.4734 123.224 110.031 111.252 110.031 111.252L110.934 106.778L103.623 95.3554Z" fill="url(#paint2_linear_1_250)"/>
<path d="M141.241 67.8681C139.346 68.7928 137.309 69.385 135.217 69.6191C132.798 69.9856 129.122 68.6316 129.122 68.6316C131.899 66.4276 131.253 61.2304 131.253 61.2304L131.314 61.1999C134.278 60.9708 136.757 59.2758 138.489 57.6367C137.863 62.0856 141.241 67.8681 141.241 67.8681Z" fill="url(#paint3_linear_1_250)"/>
<path d="M141.241 51.3147V54.3688C140.451 55.5553 139.53 56.6467 138.494 57.6215C136.762 59.2656 134.283 60.9607 131.319 61.1847C129.972 61.2884 128.62 61.0884 127.36 60.5993C119.281 57.5452 124.962 41.3836 124.962 41.3836C127.527 34.8071 139.14 37.9885 139.14 37.9885C140.695 39.8566 140.993 45.0741 140.933 45.5831C140.674 46.2982 140.335 46.9813 139.923 47.6192C139.923 47.6192 142.129 45.522 142.887 46.9167C143.644 48.3115 141.241 51.3147 141.241 51.3147Z" fill="url(#paint4_linear_1_250)"/>
<path d="M141.241 54.379V51.3249C141.241 51.3249 143.639 48.3471 142.882 46.9422C142.124 45.5373 139.918 47.6446 139.918 47.6446C140.33 47.0068 140.669 46.3237 140.928 45.6085C140.988 45.0995 140.736 40.1772 139.135 38.0139C139.135 38.0139 127.522 34.8325 124.956 41.4091C124.956 41.4091 121.634 40.559 118.771 36.5734C114.09 30.0528 119.68 29.2536 125.219 30.5109C131.94 32.038 138.676 27.0292 146.376 32.1194C154.076 37.2096 147.174 48.7797 141.241 54.379Z" fill="#262F72"/>
<path d="M158.707 92.459C162.16 102.823 164.72 114.82 166.468 124.701C165.841 125.031 165.205 125.347 164.564 125.652C164.276 125.795 163.993 125.927 163.7 126.06C161.873 126.905 159.998 127.663 158.075 128.335C156.561 128.869 155.005 129.353 153.435 129.77C138.603 133.752 122.856 132.371 108.93 125.866C108.359 125.596 107.789 125.322 107.228 125.037C108.238 119.809 109.44 113.665 110.849 106.747C111.36 104.24 111.897 101.63 112.459 98.9185C115.353 85.0273 119.503 77.4632 122.932 73.3656L122.967 73.3248C123.618 72.5458 124.324 71.8144 125.078 71.136C125.099 71.1114 125.122 71.0892 125.148 71.0698C125.32 70.9171 125.492 70.7746 125.653 70.6372C127.719 68.9421 129.122 68.6316 129.122 68.6316L129.249 68.6774H129.319C130.416 69.1135 131.566 69.3994 132.738 69.5275H132.935H132.965C133.713 69.5997 134.466 69.6117 135.217 69.5631H135.262C137.346 69.4292 139.376 68.8386 141.211 67.8325C143.361 68.5496 145.387 69.6025 147.214 70.9528C152.435 74.8163 162.953 88.9824 162.953 88.9824L158.707 92.459Z" fill="url(#paint5_linear_1_250)"/>
<path d="M177.94 111.802C177.909 113.217 176.632 116.088 174.764 119.57C172.128 121.487 169.353 123.202 166.462 124.701C165.836 125.031 165.2 125.347 164.559 125.652C164.271 125.795 163.988 125.927 163.695 126.06C161.867 126.905 159.992 127.663 158.07 128.335L162.948 112.662L150.325 99.3003L158.702 92.4591L162.948 88.9926C162.948 88.9926 178.071 106.33 177.94 111.802Z" fill="url(#paint6_linear_1_250)"/>
<path fill-rule="evenodd" clip-rule="evenodd" d="M52.2179 108.988L0 106.06V78.5035L52.2179 81.4323V108.988Z" fill="#8F97B9"/>
<path fill-rule="evenodd" clip-rule="evenodd" d="M52.2179 81.4656L0 78.4937L47.7123 62L99.9302 64.9719L52.2179 81.4656Z" fill="#E5E8F5"/>
<path fill-rule="evenodd" clip-rule="evenodd" d="M99.9394 86.8963L52.2431 108.943L52.2228 81.4657L99.9252 64.8489L99.9394 86.8963Z" fill="#BBC0D6"/>
<defs>
<linearGradient id="paint0_linear_1_250" x1="136.788" y1="7.16742" x2="134.512" y2="137.263" gradientUnits="userSpaceOnUse">
<stop stop-color="white" stop-opacity="0"/>
<stop offset="1" stop-color="#64B5F6" stop-opacity="0.6"/>
</linearGradient>
<linearGradient id="paint1_linear_1_250" x1="116.231" y1="68.2092" x2="112.383" y2="103.452" gradientUnits="userSpaceOnUse">
<stop stop-color="#42A5F5"/>
<stop offset="1" stop-color="#1565C0"/>
</linearGradient>
<linearGradient id="paint2_linear_1_250" x1="72.5338" y1="105.322" x2="114.455" y2="110.833" gradientUnits="userSpaceOnUse">
<stop stop-color="#FFE082"/>
<stop offset="1" stop-color="#FFA726"/>
</linearGradient>
<linearGradient id="paint3_linear_1_250" x1="9427.78" y1="2544.52" x2="9430.77" y2="2315.66" gradientUnits="userSpaceOnUse">
<stop stop-color="#FFE082"/>
<stop offset="1" stop-color="#FFA726"/>
</linearGradient>
<linearGradient id="paint4_linear_1_250" x1="14997.3" y1="4075.82" x2="15790.5" y2="4075.82" gradientUnits="userSpaceOnUse">
<stop stop-color="#FFE082"/>
<stop offset="1" stop-color="#FFA726"/>
</linearGradient>
<linearGradient id="paint5_linear_1_250" x1="42958.6" y1="15103.6" x2="48857.7" y2="20773.6" gradientUnits="userSpaceOnUse">
<stop stop-color="#42A5F5"/>
<stop offset="1" stop-color="#1565C0"/>
</linearGradient>
<linearGradient id="paint6_linear_1_250" x1="23019.9" y1="12265.9" x2="22616.5" y2="9747.27" gradientUnits="userSpaceOnUse">
<stop stop-color="#FFE082"/>
<stop offset="1" stop-color="#FFA726"/>
</linearGradient>
</defs>
</svg>
