<svg width="255" height="208" viewBox="0 0 255 208" fill="none" xmlns="http://www.w3.org/2000/svg">
<path d="M188.522 135.763C188.53 144.946 186.606 154.029 182.874 162.431C179.141 170.833 173.682 178.367 166.847 184.552C164.946 186.274 162.947 187.886 160.86 189.382C158.182 191.301 155.363 193.017 152.427 194.517H152.396C151.77 194.844 151.134 195.154 150.493 195.455C150.2 195.598 149.913 195.73 149.615 195.863C147.758 196.708 145.853 197.467 143.9 198.14C142.361 198.649 140.781 199.159 139.186 199.577C129.983 202.008 120.363 202.458 110.97 200.896C109.857 200.713 108.759 200.504 107.667 200.265L106.743 200.056C103.956 199.409 101.214 198.582 98.535 197.58C96.9789 196.999 95.4535 196.362 93.959 195.669C93.3793 195.399 92.7996 195.124 92.2301 194.838C91.8402 194.645 91.4555 194.446 91.0707 194.247C80.6325 188.803 71.8387 180.702 65.5899 170.772C59.341 160.843 55.8617 149.442 55.5081 137.738C55.1546 126.034 57.9395 114.447 63.5777 104.163C69.2159 93.8798 77.5048 85.2691 87.5956 79.2132C97.6864 73.1572 109.217 69.8736 121.005 69.6985C132.794 69.5235 144.418 72.4633 154.687 78.2169C164.955 83.9705 173.5 92.3311 179.445 102.443C185.39 112.554 188.523 124.054 188.522 135.763Z" fill="url(#paint0_linear_1_198)"/>
<path d="M139.432 140.542C143.669 144.873 156.012 161.727 156.012 161.727L148.43 172.767L141.612 150.834L139.432 140.542Z" fill="url(#paint1_linear_1_198)"/>
<path d="M152.396 194.553C151.77 194.879 151.134 195.19 150.492 195.491C150.2 195.633 149.913 195.766 149.615 195.898C147.758 196.744 145.853 197.503 143.9 198.176C142.361 198.685 140.781 199.195 139.186 199.612C129.983 202.044 120.363 202.494 110.97 200.932C109.857 200.749 108.759 200.54 107.667 200.3C103.665 203.041 99.9714 205.359 97.5243 206.414L97.7244 204.718L98.5555 197.62L100.479 181.108L108.103 173.786L90.963 175.106C90.963 175.106 92.7636 150.294 99.7918 145.189C106.82 140.083 114.192 135.508 114.192 135.508C115.071 136.084 116.04 136.513 117.06 136.777C119.497 137.446 122.031 137.703 124.555 137.536C127.561 137.398 130.567 134.622 130.711 134.479C130.711 134.479 135.431 135.411 139.432 140.562C141.428 143.214 142.861 146.24 143.644 149.458C144.629 153.223 146.378 162.017 148.369 172.64C149.672 179.477 151.041 187.059 152.396 194.553Z" fill="url(#paint2_linear_1_198)"/>
<path d="M156.012 161.747L163.328 170.261L189.055 144.898L190.03 139.706L195.16 135.279L192.877 142.03V150.823C192.877 150.823 173.034 182.769 167.565 184.414C161.168 186.345 148.44 172.757 148.44 172.757L156.012 161.747Z" fill="url(#paint3_linear_1_198)"/>
<path d="M129.305 173.389L135.272 187.655L142.982 184.363L137.329 170.403L129.305 173.389Z" fill="#7E57C2"/>
<path d="M137.616 182.606C136.657 183.39 135.225 183.207 133.45 183.298C131.066 183.361 128.778 184.251 126.986 185.815C124.601 187.807 117.932 193.02 111.263 197.778C110.052 198.639 108.841 199.49 107.672 200.326C103.67 203.067 99.9766 205.385 97.5295 206.439C96.8862 206.757 96.1915 206.958 95.4775 207.036C92.0506 207.122 91.317 199.989 91.1066 194.298C91.04 192.408 91.0246 190.681 90.9886 189.433C90.845 184.44 90.9886 175.167 90.9886 175.167L108.128 173.842L106.312 185.632L105.994 187.716V187.731L111.124 185.846L111.283 185.79L129.495 179.07L130.752 176.915L131.552 178.952H131.629L139.427 177.934C139.427 177.934 139.56 181.021 137.616 182.606Z" fill="url(#paint4_linear_1_198)"/>
<path d="M133.681 108.25C133.235 107.038 132.85 106.212 132.737 105.968V105.907C132.737 105.907 132.342 106.875 129.367 106.64C126.391 106.406 125.406 104.939 125.406 104.939C125.406 104.939 126.34 108.118 122.795 109.478C119.384 110.793 118.04 109.942 117.947 109.881C118.127 110.074 120.794 112.907 119.025 115.154C117.193 117.482 113.074 117.024 113.074 117.024V117.054C113.592 118.22 114.173 119.358 114.813 120.463C115.151 121.044 115.485 121.579 115.839 122.078V122.114C116.747 123.581 117.974 124.829 119.43 125.767C118.79 129.495 116.953 132.918 114.192 135.523C115.121 136.005 116.078 136.428 117.06 136.792C118.973 137.51 121.543 138.224 123.837 138.025C126.494 137.743 128.949 136.486 130.721 134.499L129.546 130.021L128.49 125.986C138.042 123.566 135.415 113.04 133.681 108.25ZM127.956 126.133L128.125 126.093L128.397 126.016C128.002 126.186 127.584 126.299 127.156 126.353C127.376 126.296 127.602 126.235 127.838 126.164L127.956 126.133Z" fill="url(#paint5_linear_1_198)"/>
<path d="M139.432 105.774C135.492 109.371 133.789 108.357 133.681 108.261V108.25C133.235 107.038 132.85 106.212 132.742 105.968L132.717 105.907C132.717 105.907 132.317 106.875 129.341 106.64C126.366 106.406 125.386 104.939 125.386 104.939C125.386 104.939 126.319 108.118 122.775 109.478C119.358 110.793 118.014 109.942 117.927 109.881C118.106 110.069 120.774 112.902 119.004 115.149C117.173 117.477 113.053 117.024 113.053 117.024V117.049C113.571 118.217 114.152 119.356 114.792 120.463C115.134 121.04 115.476 121.579 115.818 122.078V122.114C115.818 122.114 114.413 124.86 111.904 124.804C109.395 124.748 109.339 122.256 109.339 122.256C109.339 122.256 107.564 125.435 102.08 122.373C96.5958 119.311 100.254 114.874 100.254 114.874C100.254 114.874 96.3649 111.919 96.3649 107.491C96.3649 103.064 102.418 99.696 102.418 99.696C102.418 99.696 100.254 94.5552 103.906 91.7224C107.559 88.8897 113.048 90.8104 113.048 90.8104C113.048 90.8104 112.94 84.2329 118.532 84.3399C124.124 84.4469 125.391 87.8452 125.391 87.8452C125.391 87.8452 130.418 83.9833 135.395 87.621C140.371 91.2588 138.324 97.602 138.324 97.602C138.324 97.602 143.541 102.029 139.432 105.774Z" fill="url(#paint6_linear_1_198)"/>
<path opacity="0.15" d="M129.587 130.006C127.202 129.257 122.959 126.398 122.959 126.398C124.634 126.574 126.325 126.485 127.971 126.134L128.141 126.093L128.469 125.996H128.515L129.587 130.006Z" fill="black"/>
<path opacity="0.15" d="M110.416 158.547L108.103 173.832L106.287 185.622L102.059 189.112L111.258 185.795C111.258 185.795 108.872 179.029 110.416 158.547Z" fill="black"/>
<path opacity="0.15" d="M107.656 200.3C108.749 200.54 109.847 200.749 110.96 200.932C111.017 199.888 111.119 198.833 111.263 197.778L107.656 200.3Z" fill="black"/>
<g filter="url(#filter0_d_1_198)">
<path d="M85.4225 10H57.992C54.2067 10 51.1382 13.0475 51.1382 16.8068V44.0493C51.1382 47.8086 54.2067 50.8561 57.992 50.8561H85.4225C89.2078 50.8561 92.2763 47.8086 92.2763 44.0493V16.8068C92.2763 13.0475 89.2078 10 85.4225 10Z" fill="#56CCF2"/>
</g>
<rect x="61" y="30.8976" width="22.1043" height="11.7344" rx="4.4" fill="white"/>
<path d="M65.4964 30.8976C65.4964 30.8976 64.5182 18 72.048 18C79.5778 18 79.0352 30.9099 79.0352 30.9099" stroke="white" stroke-width="1.9"/>
<g filter="url(#filter1_d_1_198)">
<path d="M227.284 113H199.854C196.069 113 193 116.048 193 119.807V147.049C193 150.809 196.069 153.856 199.854 153.856H227.284C231.07 153.856 234.138 150.809 234.138 147.049V119.807C234.138 116.048 231.07 113 227.284 113Z" fill="#F2C94C"/>
</g>
<path d="M220.062 130.37L222.734 121.273C223.056 120.558 222.997 119.725 222.578 119.063C222.158 118.401 221.436 118.001 220.66 118H218.17L217.34 119.851C216.732 121.18 215.419 122.03 213.975 122.03C212.531 122.03 211.218 121.18 210.61 119.851L209.78 118H207.768C206.891 118 206.074 118.452 205.599 119.2C205.125 119.948 205.059 120.89 205.423 121.698L207.913 130.37L204.178 142.572C203.799 143.843 204.033 145.221 204.81 146.289C205.586 147.358 206.815 147.992 208.124 148H219.88C221.188 147.991 222.416 147.356 223.192 146.288C223.968 145.219 224.201 143.842 223.822 142.572L220.062 130.37Z" fill="white"/>
<g filter="url(#filter2_d_1_198)">
<path d="M44.2844 113H16.8538C13.0685 113 10 116.048 10 119.807V147.049C10 150.809 13.0685 153.856 16.8538 153.856H44.2844C48.0696 153.856 51.1381 150.809 51.1381 147.049V119.807C51.1381 116.048 48.0696 113 44.2844 113Z" fill="#F58A8A"/>
</g>
<path d="M39.3125 135.625C37.5693 135.627 35.8624 136.124 34.3908 137.058C32.9191 137.992 31.7432 139.325 31 140.902C30.2568 139.325 29.0809 137.992 27.6092 137.058C26.1376 136.124 24.4307 135.627 22.6875 135.625H17.875V136.5C17.875 141.566 21.9965 145.688 27.0625 145.688H34.9375C40.0035 145.688 44.125 141.566 44.125 136.5V135.625H39.3125ZM27.0625 143.938C23.2573 143.938 20.1104 141.065 19.6762 137.375H22.6875C26.4927 137.375 29.6396 140.247 30.0738 143.938H27.0625ZM34.9375 143.938H31.9262C32.3604 140.247 35.5073 137.375 39.3125 137.375H42.3238C41.8896 141.065 38.7427 143.938 34.9375 143.938Z" fill="white"/>
<path d="M26.2546 133.37C26.4201 134.354 26.8895 135.262 27.597 135.966L27.8533 136.222H28.2158C29.2136 136.225 30.1872 135.915 31 135.336C31.8128 135.915 32.7864 136.225 33.7843 136.222H34.1467L34.403 135.966C35.1105 135.262 35.5799 134.355 35.7454 133.371C36.7294 133.205 37.6369 132.736 38.3405 132.028L38.5967 131.772V131.41C38.5996 130.412 38.2898 129.438 37.711 128.625C38.2899 127.812 38.5997 126.839 38.597 125.841V125.478L38.3407 125.222C37.6371 124.515 36.7296 124.045 35.7456 123.88C35.5801 122.896 35.1107 121.988 34.4032 121.285L34.1469 121.028H33.7845C32.7866 121.025 31.8129 121.335 31 121.914C30.1872 121.335 29.2136 121.025 28.2158 121.028H27.8533L27.597 121.284C26.8895 121.988 26.4201 122.895 26.2546 123.879C25.2706 124.045 24.3631 124.514 23.6595 125.222L23.4033 125.478V125.841C23.4004 126.838 23.7102 127.812 24.289 128.625C23.7101 129.438 23.4003 130.411 23.403 131.409V131.772L23.6593 132.028C24.363 132.736 25.2705 133.205 26.2546 133.37ZM26.0503 128.006C25.565 127.524 25.2567 126.892 25.1753 126.213C25.7132 125.79 26.3782 125.561 27.0625 125.563H27.9375V124.688C27.9355 124.003 28.1645 123.338 28.5874 122.801C29.2668 122.882 29.8988 123.19 30.3812 123.676L31 124.294L31.6187 123.675C32.101 123.19 32.7331 122.882 33.4124 122.8C33.8355 123.338 34.0645 124.003 34.0625 124.688V125.563H34.9375C35.6217 125.561 36.2866 125.79 36.8245 126.212C36.7431 126.892 36.4348 127.524 35.9495 128.006L35.3313 128.625L35.95 129.244C36.4353 129.726 36.7436 130.358 36.825 131.038C36.287 131.461 35.6219 131.69 34.9375 131.688H34.0625V132.563C34.0645 133.247 33.8355 133.912 33.4126 134.45C32.7332 134.368 32.1012 134.06 31.6188 133.575L31 132.956L30.3813 133.575C29.8989 134.06 29.2669 134.368 28.5875 134.45C28.1645 133.912 27.9355 133.247 27.9375 132.563V131.688H27.0625C26.3783 131.69 25.7134 131.461 25.1755 131.038C25.2569 130.358 25.5652 129.726 26.0505 129.244L26.6688 128.625L26.0503 128.006Z" fill="white"/>
<g filter="url(#filter3_d_1_198)">
<path d="M182.284 10H154.854C151.069 10 148 13.0475 148 16.8068V44.0493C148 47.8086 151.069 50.8561 154.854 50.8561H182.284C186.07 50.8561 189.138 47.8086 189.138 44.0493V16.8068C189.138 13.0475 186.07 10 182.284 10Z" fill="#6FCF97"/>
</g>
<path d="M175.122 16C170.808 17.3464 166.188 17.3464 161.874 16C161.395 17.1251 160 20.6615 160 23.9715C160 28.5217 161.464 41.2507 161.464 41.2507C161.464 41.2507 164.476 43.9386 168.5 44C172.52 43.9309 175.532 41.243 175.532 41.243C175.532 41.243 177 28.5063 177 23.9638C177 20.6615 175.601 17.1251 175.122 16Z" fill="white"/>
<defs>
<filter id="filter0_d_1_198" x="41.1382" y="0" width="71.1381" height="70.8561" filterUnits="userSpaceOnUse" color-interpolation-filters="sRGB">
<feFlood flood-opacity="0" result="BackgroundImageFix"/>
<feColorMatrix in="SourceAlpha" type="matrix" values="0 0 0 0 0 0 0 0 0 0 0 0 0 0 0 0 0 0 127 0" result="hardAlpha"/>
<feOffset dx="5" dy="5"/>
<feGaussianBlur stdDeviation="7.5"/>
<feColorMatrix type="matrix" values="0 0 0 0 0 0 0 0 0 0 0 0 0 0 0 0 0 0 0.15 0"/>
<feBlend mode="normal" in2="BackgroundImageFix" result="effect1_dropShadow_1_198"/>
<feBlend mode="normal" in="SourceGraphic" in2="effect1_dropShadow_1_198" result="shape"/>
</filter>
<filter id="filter1_d_1_198" x="183" y="103" width="71.1381" height="70.8561" filterUnits="userSpaceOnUse" color-interpolation-filters="sRGB">
<feFlood flood-opacity="0" result="BackgroundImageFix"/>
<feColorMatrix in="SourceAlpha" type="matrix" values="0 0 0 0 0 0 0 0 0 0 0 0 0 0 0 0 0 0 127 0" result="hardAlpha"/>
<feOffset dx="5" dy="5"/>
<feGaussianBlur stdDeviation="7.5"/>
<feColorMatrix type="matrix" values="0 0 0 0 0 0 0 0 0 0 0 0 0 0 0 0 0 0 0.15 0"/>
<feBlend mode="normal" in2="BackgroundImageFix" result="effect1_dropShadow_1_198"/>
<feBlend mode="normal" in="SourceGraphic" in2="effect1_dropShadow_1_198" result="shape"/>
</filter>
<filter id="filter2_d_1_198" x="0" y="103" width="71.1381" height="70.8561" filterUnits="userSpaceOnUse" color-interpolation-filters="sRGB">
<feFlood flood-opacity="0" result="BackgroundImageFix"/>
<feColorMatrix in="SourceAlpha" type="matrix" values="0 0 0 0 0 0 0 0 0 0 0 0 0 0 0 0 0 0 127 0" result="hardAlpha"/>
<feOffset dx="5" dy="5"/>
<feGaussianBlur stdDeviation="7.5"/>
<feColorMatrix type="matrix" values="0 0 0 0 0 0 0 0 0 0 0 0 0 0 0 0 0 0 0.15 0"/>
<feBlend mode="normal" in2="BackgroundImageFix" result="effect1_dropShadow_1_198"/>
<feBlend mode="normal" in="SourceGraphic" in2="effect1_dropShadow_1_198" result="shape"/>
</filter>
<filter id="filter3_d_1_198" x="138" y="0" width="71.1381" height="70.8561" filterUnits="userSpaceOnUse" color-interpolation-filters="sRGB">
<feFlood flood-opacity="0" result="BackgroundImageFix"/>
<feColorMatrix in="SourceAlpha" type="matrix" values="0 0 0 0 0 0 0 0 0 0 0 0 0 0 0 0 0 0 127 0" result="hardAlpha"/>
<feOffset dx="5" dy="5"/>
<feGaussianBlur stdDeviation="7.5"/>
<feColorMatrix type="matrix" values="0 0 0 0 0 0 0 0 0 0 0 0 0 0 0 0 0 0 0.15 0"/>
<feBlend mode="normal" in2="BackgroundImageFix" result="effect1_dropShadow_1_198"/>
<feBlend mode="normal" in="SourceGraphic" in2="effect1_dropShadow_1_198" result="shape"/>
</filter>
<linearGradient id="paint0_linear_1_198" x1="122.273" y1="76.8651" x2="120.029" y2="207.076" gradientUnits="userSpaceOnUse">
<stop stop-color="white" stop-opacity="0"/>
<stop offset="1" stop-color="#64B5F6" stop-opacity="0.6"/>
</linearGradient>
<linearGradient id="paint1_linear_1_198" x1="134.41" y1="136.165" x2="152.56" y2="168.279" gradientUnits="userSpaceOnUse">
<stop stop-color="#E57373"/>
<stop offset="1" stop-color="#AD1457"/>
</linearGradient>
<linearGradient id="paint2_linear_1_198" x1="28141.2" y1="39794.5" x2="26229.2" y2="49295.9" gradientUnits="userSpaceOnUse">
<stop stop-color="#E57373"/>
<stop offset="1" stop-color="#AD1457"/>
</linearGradient>
<linearGradient id="paint3_linear_1_198" x1="202.122" y1="147.94" x2="152.589" y2="176.833" gradientUnits="userSpaceOnUse">
<stop stop-color="#FFF8E1"/>
<stop offset="1" stop-color="#FFCC80"/>
</linearGradient>
<linearGradient id="paint4_linear_1_198" x1="21652.4" y1="22319.6" x2="18981.7" y2="20506.4" gradientUnits="userSpaceOnUse">
<stop stop-color="#FFF8E1"/>
<stop offset="1" stop-color="#FFCC80"/>
</linearGradient>
<linearGradient id="paint5_linear_1_198" x1="138.704" y1="113.439" x2="111.662" y2="124.652" gradientUnits="userSpaceOnUse">
<stop stop-color="#FFF8E1"/>
<stop offset="1" stop-color="#FFCC80"/>
</linearGradient>
<linearGradient id="paint6_linear_1_198" x1="132.486" y1="84.1463" x2="101.053" y2="126.911" gradientUnits="userSpaceOnUse">
<stop stop-color="#FFB74D"/>
<stop offset="1" stop-color="#F4511E"/>
</linearGradient>
</defs>
</svg>
