<svg width="171" height="132" viewBox="0 0 171 132" fill="none" xmlns="http://www.w3.org/2000/svg">
<path d="M171 66.5C170.993 78.5373 167.645 90.3405 161.32 100.616C154.996 110.892 145.941 119.244 135.147 124.756C134.661 125.008 134.172 125.251 133.679 125.483L133.577 125.534L133.226 125.701C132.935 125.842 132.65 125.973 132.354 126.105C130.51 126.943 128.617 127.696 126.678 128.363C125.577 128.743 124.464 129.095 123.34 129.419L121.995 129.787C107.027 133.739 91.1354 132.368 77.081 125.913C76.5052 125.645 75.9294 125.372 75.3638 125.089L74.3446 124.584C64.2575 119.344 55.7007 111.618 49.498 102.15C48.8457 101.163 48.2241 100.153 47.633 99.1186C47.1064 98.2194 46.5968 97.3085 46.1042 96.3857C41.3168 87.1395 38.8272 76.8931 38.8428 66.5C38.8428 65.2741 38.8768 64.055 38.9448 62.8426C39.9001 45.8104 47.5204 29.8196 60.1848 18.2713C72.8493 6.72297 89.5587 0.528265 106.759 1.00471C123.96 1.48115 140.294 8.59114 152.288 20.8225C164.283 33.0539 170.99 49.4415 170.985 66.5H171Z" fill="url(#paint0_linear_1_293)"/>
<path d="M91.9452 64.1712C91.9452 64.1712 77.1676 57.2252 75.8835 47.6674C74.5994 38.1096 75.5013 28.9762 82.8646 26.4201C82.8646 26.4201 87.5221 11.6995 104.032 17.615C120.542 23.5305 117.938 41.2922 126.963 43.4189C135.987 45.5457 152.839 36.5891 156.054 47.5158C159.27 58.4426 148.696 57.7758 141.669 67.0507C134.642 76.3255 145.496 81.1954 143.509 87.5807C141.521 93.966 134.015 98.3559 134.015 98.3559L91.9452 64.1712Z" fill="url(#paint1_linear_1_293)"/>
<path d="M71.7101 85.1357L75.8835 96.3857H76.337L82.8646 67.0507C78.7422 70.6323 71.7101 85.1357 71.7101 85.1357Z" fill="url(#paint2_linear_1_293)"/>
<path d="M64.3825 100.654L61.7378 101.973C58.4562 103.923 53.5541 103.367 53.5541 103.367C56.2039 106.322 71.1241 109.667 75.3179 109.581L76.0924 99.1136H66.7979L64.3825 100.654Z" fill="url(#paint3_linear_1_293)"/>
<path d="M133.679 125.468L133.577 125.519L133.225 125.685C132.935 125.827 132.65 125.958 132.354 126.09C130.509 126.928 128.617 127.681 126.678 128.348C125.577 128.728 124.464 129.08 123.34 129.403L121.995 129.772C107.027 133.724 91.1353 132.353 77.081 125.898C76.5052 125.63 75.9294 125.357 75.3637 125.074L74.3446 124.569C74.4873 120.235 74.7064 115.047 75.0274 109.576C75.2313 106.156 75.4809 102.625 75.7765 99.1186C75.8529 98.2043 75.9345 97.295 76.016 96.3857C77.2186 83.4635 79.1448 71.4809 82.2328 67.672L82.2786 67.6215C82.6707 67.0865 83.2238 66.6886 83.8583 66.4848C88.317 65.4341 91.4611 65.0805 91.9554 64.1712C92.4496 63.2619 91.9554 61.4736 91.9554 61.4736L92.842 61.3523C94.1312 61.1604 96.6332 60.7562 99.0027 60.15C99.0177 60.1547 99.0337 60.1547 99.0486 60.15C101.143 59.6095 103.125 58.9124 104.093 58.0738L106.081 63.3124C106.081 63.3124 121.026 61.4382 126.861 67.0708C126.897 67.0971 126.929 67.1276 126.958 67.1618C127.019 67.2169 127.077 67.2759 127.131 67.3386C127.478 67.7025 127.787 68.1002 128.053 68.5257C129.954 71.5567 131.299 83.7211 132.232 96.9161C132.446 99.9471 132.639 103.079 132.808 106.146C133.195 113.228 133.485 120.088 133.679 125.468Z" fill="url(#paint4_linear_1_293)"/>
<path opacity="0.15" d="M133.577 125.534L133.226 125.701C132.935 125.842 132.65 125.973 132.354 126.105C130.509 126.943 128.617 127.696 126.678 128.363C125.577 128.743 124.464 129.095 123.34 129.419C116.456 122.149 113.724 112.713 113.724 112.713L132.797 106.146L133.577 125.534Z" fill="black"/>
<path d="M126.856 67.0507C133.761 73.7694 135.264 87.8737 133.99 98.371C132.716 108.868 130.351 118.699 125.439 118.396C120.527 118.093 103.528 106.403 96.9593 100.028L100.796 92.7283L114.677 98.462V83.1807L126.856 67.0507Z" fill="url(#paint5_linear_1_293)"/>
<path d="M126.856 67.0507C133.761 73.7694 135.264 87.8737 133.99 98.371C132.716 108.868 130.351 118.699 125.439 118.396C120.527 118.093 103.528 106.403 96.9593 100.028L100.796 92.7283L114.677 98.462V83.1807L126.856 67.0507Z" fill="url(#paint6_linear_1_293)"/>
<g filter="url(#filter0_d_1_293)">
<path d="M91.1451 96.3857H27.4539V99.1186H91.1451V96.3857Z" fill="url(#paint7_linear_1_293)"/>
<path d="M63.4347 62.8426H15L27.4539 96.3857H75.8835L63.4347 62.8426Z" fill="url(#paint8_linear_1_293)"/>
</g>
<path d="M41.9971 99.1187C41.9971 99.1187 50.354 103.266 55.6638 103.367C60.9735 103.468 66.803 99.1187 66.803 99.1187H41.9971Z" fill="url(#paint9_linear_1_293)"/>
<path d="M100.796 92.7283C100.796 92.7283 93.4484 89.0507 90.284 88.6465C87.1196 88.2424 77.295 96.3857 77.295 96.3857H91.1554L96.9747 100.028L100.796 92.7283Z" fill="url(#paint10_linear_1_293)"/>
<path d="M103.472 49.789C103.508 52.5552 103.712 55.3167 104.083 58.0586C100.796 59.8924 96.9492 60.8775 92.8319 61.3574L92.5924 58.0586L92.4497 56.038V55.9723C91.656 55.9546 90.8735 55.783 90.1464 55.4671C85.173 53.3404 84.1029 42.944 84.1029 42.944C86.0953 42.8632 88.689 39.3018 88.689 39.3018C90.1413 41.5043 96.8779 45.7578 100.786 44.6161C104.695 43.4744 104.389 40.7415 104.389 40.7415C105.096 41.037 105.707 41.5193 106.157 42.1357C106.606 42.7522 106.876 43.4791 106.937 44.2372C107.146 46.9045 103.472 49.789 103.472 49.789Z" fill="url(#paint11_linear_1_293)"/>
<path opacity="0.15" d="M100.134 52.7241C99.2117 54.2699 95.0383 56.73 92.5975 58.0687L92.4548 56.0481C92.6076 56.0481 92.7554 55.9975 92.8981 55.9672C94.8908 55.6176 96.8035 54.9142 98.5441 53.891C98.5649 53.8829 98.584 53.8709 98.6002 53.8556C99.1233 53.5491 99.6133 53.1902 100.063 52.7847L100.134 52.7241Z" fill="black"/>
<path opacity="0.15" d="M108.95 96.1028L119.763 100.488L114.667 96.8454V83.2059C114.667 83.2059 113.072 95.0571 108.95 96.1028Z" fill="black"/>
<defs>
<filter id="filter0_d_1_293" x="0" y="47.8426" width="116.145" height="76.2761" filterUnits="userSpaceOnUse" color-interpolation-filters="sRGB">
<feFlood flood-opacity="0" result="BackgroundImageFix"/>
<feColorMatrix in="SourceAlpha" type="matrix" values="0 0 0 0 0 0 0 0 0 0 0 0 0 0 0 0 0 0 127 0" result="hardAlpha"/>
<feOffset dx="5" dy="5"/>
<feGaussianBlur stdDeviation="10"/>
<feColorMatrix type="matrix" values="0 0 0 0 0 0 0 0 0 0 0 0 0 0 0 0 0 0 0.2 0"/>
<feBlend mode="normal" in2="BackgroundImageFix" result="effect1_dropShadow_1_293"/>
<feBlend mode="normal" in="SourceGraphic" in2="effect1_dropShadow_1_293" result="shape"/>
</filter>
<linearGradient id="paint0_linear_1_293" x1="105.193" y1="8.09361" x2="102.971" y2="137.225" gradientUnits="userSpaceOnUse">
<stop stop-color="white" stop-opacity="0"/>
<stop offset="1" stop-color="#64B5F6" stop-opacity="0.6"/>
</linearGradient>
<linearGradient id="paint1_linear_1_293" x1="75.3994" y1="57.2807" x2="156.656" y2="57.2807" gradientUnits="userSpaceOnUse">
<stop stop-color="#EF9A9A"/>
<stop offset="1" stop-color="#D81B60"/>
</linearGradient>
<linearGradient id="paint2_linear_1_293" x1="76.6836" y1="82.8826" x2="74.2744" y2="110.514" gradientUnits="userSpaceOnUse">
<stop stop-color="#7E57C2"/>
<stop offset="1" stop-color="#4527A0"/>
</linearGradient>
<linearGradient id="paint3_linear_1_293" x1="6813.02" y1="2527.43" x2="6789.49" y2="3103.43" gradientUnits="userSpaceOnUse">
<stop stop-color="#7E57C2"/>
<stop offset="1" stop-color="#4527A0"/>
</linearGradient>
<linearGradient id="paint4_linear_1_293" x1="20341.2" y1="14858" x2="24468.7" y2="22492.9" gradientUnits="userSpaceOnUse">
<stop stop-color="#7E57C2"/>
<stop offset="1" stop-color="#4527A0"/>
</linearGradient>
<linearGradient id="paint5_linear_1_293" x1="13960.4" y1="9770.53" x2="17624.5" y2="15926.1" gradientUnits="userSpaceOnUse">
<stop stop-color="#7E57C2"/>
<stop offset="1" stop-color="#4527A0"/>
</linearGradient>
<linearGradient id="paint6_linear_1_293" x1="118.759" y1="72.7489" x2="113.038" y2="119.812" gradientUnits="userSpaceOnUse">
<stop offset="0.14" stop-color="#7E57C2" stop-opacity="0"/>
<stop offset="0.26" stop-color="#724DBB" stop-opacity="0.21"/>
<stop offset="0.48" stop-color="#5F3DAF" stop-opacity="0.55"/>
<stop offset="0.66" stop-color="#5131A7" stop-opacity="0.79"/>
<stop offset="0.81" stop-color="#482AA2" stop-opacity="0.94"/>
<stop offset="0.91" stop-color="#4527A0"/>
</linearGradient>
<linearGradient id="paint7_linear_1_293" x1="27.4539" y1="97.7496" x2="91.1451" y2="97.7496" gradientUnits="userSpaceOnUse">
<stop stop-color="#D2D4D5"/>
<stop offset="1" stop-color="#AAACAE"/>
</linearGradient>
<linearGradient id="paint8_linear_1_293" x1="537.989" y1="4198.71" x2="4142.02" y2="8332.05" gradientUnits="userSpaceOnUse">
<stop stop-color="#D2D4D5"/>
<stop offset="1" stop-color="#AAACAE"/>
</linearGradient>
<linearGradient id="paint9_linear_1_293" x1="43.5767" y1="94.557" x2="63.884" y2="103.338" gradientUnits="userSpaceOnUse">
<stop stop-color="#FFF8E1"/>
<stop offset="1" stop-color="#FFCC80"/>
</linearGradient>
<linearGradient id="paint10_linear_1_293" x1="7875.06" y1="2941.73" x2="8393.29" y2="3509.97" gradientUnits="userSpaceOnUse">
<stop stop-color="#FFF8E1"/>
<stop offset="1" stop-color="#FFCC80"/>
</linearGradient>
<linearGradient id="paint11_linear_1_293" x1="8044.47" y1="3227.22" x2="8499.41" y2="4088.69" gradientUnits="userSpaceOnUse">
<stop stop-color="#FFF8E1"/>
<stop offset="1" stop-color="#FFCC80"/>
</linearGradient>
</defs>
</svg>
