<svg width="50" height="50" viewBox="0 0 50 50" fill="none" xmlns="http://www.w3.org/2000/svg">
<g id="fa-solid:quote-left" opacity="0.5">
<path id="Vector" d="M45.3125 25H37.5V18.75C37.5 15.3027 40.3027 12.5 43.75 12.5H44.5312C45.8301 12.5 46.875 11.4551 46.875 10.1562V5.46875C46.875 4.16992 45.8301 3.125 44.5312 3.125H43.75C35.1172 3.125 28.125 10.1172 28.125 18.75V42.1875C28.125 44.7754 30.2246 46.875 32.8125 46.875H45.3125C47.9004 46.875 50 44.7754 50 42.1875V29.6875C50 27.0996 47.9004 25 45.3125 25ZM17.1875 25H9.375V18.75C9.375 15.3027 12.1777 12.5 15.625 12.5H16.4062C17.7051 12.5 18.75 11.4551 18.75 10.1562V5.46875C18.75 4.16992 17.7051 3.125 16.4062 3.125H15.625C6.99219 3.125 0 10.1172 0 18.75V42.1875C0 44.7754 2.09961 46.875 4.6875 46.875H17.1875C19.7754 46.875 21.875 44.7754 21.875 42.1875V29.6875C21.875 27.0996 19.7754 25 17.1875 25Z" fill="#878787"/>
</g>
</svg>
